<?xml version="1.0" encoding="UTF-8"?>
<!DOCTYPE svg PUBLIC "-//W3C//DTD SVG 1.1//EN" "http://www.w3.org/Graphics/SVG/1.1/DTD/svg11.dtd">
<svg xmlns="http://www.w3.org/2000/svg" version="1.1" width="500px" height="500px" style="shape-rendering:geometricPrecision; text-rendering:geometricPrecision; image-rendering:optimizeQuality; fill-rule:evenodd; clip-rule:evenodd" xmlns:xlink="http://www.w3.org/1999/xlink">
<g><path style="opacity:0.069" fill="#443944" d="M 341.5,123.5 C 373.997,122.336 406.664,122.169 439.5,123C 440.737,123.232 441.737,123.732 442.5,124.5C 441.167,124.5 439.833,124.5 438.5,124.5C 406.338,123.502 374.004,123.168 341.5,123.5 Z"/></g>
<g><path style="opacity:0.632" fill="#486780" d="M 167.5,123.5 C 167.5,123.833 167.5,124.167 167.5,124.5C 166.5,124.5 165.5,124.5 164.5,124.5C 160.833,124.5 157.167,124.5 153.5,124.5C 149.833,124.5 146.167,124.5 142.5,124.5C 137.833,124.5 133.167,124.5 128.5,124.5C 123.833,124.5 119.167,124.5 114.5,124.5C 108.833,124.5 103.167,124.5 97.5,124.5C 92.5,124.5 87.5,124.5 82.5,124.5C 82.1667,124.5 81.8333,124.5 81.5,124.5C 75.1667,124.5 68.8333,124.5 62.5,124.5C 63.2625,123.732 64.2625,123.232 65.5,123C 99.5715,122.174 133.571,122.341 167.5,123.5 Z"/></g>
<g><path style="opacity:0.149" fill="#434a5f" d="M 185.5,125.5 C 184.167,125.5 182.833,125.5 181.5,125.5C 176.859,124.873 172.193,124.54 167.5,124.5C 167.5,124.167 167.5,123.833 167.5,123.5C 167.435,123.062 167.601,122.728 168,122.5C 173.98,123.173 179.813,124.173 185.5,125.5 Z"/></g>
<g><path style="opacity:0.668" fill="#67497c" d="M 307.5,124.5 C 301.833,124.5 296.167,124.5 290.5,124.5C 283.5,124.5 276.5,124.5 269.5,124.5C 268.833,124.5 268.167,124.5 267.5,124.5C 268.263,123.732 269.263,123.232 270.5,123C 281.833,122.333 293.167,122.333 304.5,123C 305.737,123.232 306.737,123.732 307.5,124.5 Z"/></g>
<g><path style="opacity:0.735" fill="#9f349e" d="M 341.5,123.5 C 374.004,123.168 406.338,123.502 438.5,124.5C 433.833,124.5 429.167,124.5 424.5,124.5C 413.167,124.5 401.833,124.5 390.5,124.5C 386.167,124.5 381.833,124.5 377.5,124.5C 373.5,124.5 369.5,124.5 365.5,124.5C 359.5,124.5 353.5,124.5 347.5,124.5C 345.167,124.5 342.833,124.5 340.5,124.5C 339.609,125.11 338.609,125.443 337.5,125.5C 338.287,123.896 339.62,123.229 341.5,123.5 Z"/></g>
<g><path style="opacity:1" fill="#59d1fd" d="M 81.5,124.5 C 81.8333,124.5 82.1667,124.5 82.5,124.5C 83.0283,125.721 83.695,126.887 84.5,128C 84.0634,140.218 84.0634,152.552 84.5,165C 82.1902,165.497 79.8568,165.663 77.5,165.5C 76.2825,164.839 74.9492,164.172 73.5,163.5C 72.3595,162.575 72.3595,161.741 73.5,161C 70.8333,159.667 70.8333,158.333 73.5,157C 70.8333,155.667 70.8333,154.333 73.5,153C 70.8333,151.667 70.8333,150.333 73.5,149C 74.0891,147.127 73.4224,145.46 71.5,144C 74.1667,142.667 74.1667,141.333 71.5,140C 74.1667,138.667 74.1667,137.333 71.5,136C 74.1667,134.667 74.1667,133.333 71.5,132C 74.028,130.684 74.028,129.517 71.5,128.5C 72.0253,127.808 72.6919,127.308 73.5,127C 73.1667,126.667 72.8333,126.333 72.5,126C 75.6946,125.819 78.6946,125.319 81.5,124.5 Z"/></g>
<g><path style="opacity:1" fill="#5ecafa" d="M 82.5,124.5 C 87.5,124.5 92.5,124.5 97.5,124.5C 96.8982,126.338 96.5649,128.171 96.5,130C 99.1667,130.667 99.1667,131.333 96.5,132C 97.8333,134 97.8333,136 96.5,138C 99.1667,138.667 99.1667,139.333 96.5,140C 96.5,144.333 96.5,148.667 96.5,153C 99.1667,153.667 99.1667,154.333 96.5,155C 97.8333,157 97.8333,159 96.5,161C 98.9913,161.626 98.9913,162.459 96.5,163.5C 97.2427,164.182 97.9094,164.849 98.5,165.5C 96.901,165.232 95.5676,165.566 94.5,166.5C 84.6522,166.827 74.9856,166.494 65.5,165.5C 69.5,165.5 73.5,165.5 77.5,165.5C 79.8568,165.663 82.1902,165.497 84.5,165C 84.0634,152.552 84.0634,140.218 84.5,128C 83.695,126.887 83.0283,125.721 82.5,124.5 Z"/></g>
<g><path style="opacity:1" fill="#64c4fa" d="M 97.5,124.5 C 103.167,124.5 108.833,124.5 114.5,124.5C 112.611,125.322 110.611,126.155 108.5,127C 111.167,128 111.167,129 108.5,130C 111.167,131.333 111.167,132.667 108.5,134C 111.167,134.667 111.167,135.333 108.5,136C 111.167,136.667 111.167,137.333 108.5,138C 111.167,139.333 111.167,140.667 108.5,142C 111.167,142.667 111.167,143.333 108.5,144C 111.167,145.667 111.167,147.333 108.5,149C 111.167,149.667 111.167,150.333 108.5,151C 111.167,151.667 111.167,152.333 108.5,153C 111.167,154.333 111.167,155.667 108.5,157C 111.167,157.667 111.167,158.333 108.5,159C 111.167,159.667 111.167,160.333 108.5,161C 109.973,161.71 110.64,162.876 110.5,164.5C 109.323,165.691 105.323,166.024 98.5,165.5C 97.9094,164.849 97.2427,164.182 96.5,163.5C 98.9913,162.459 98.9913,161.626 96.5,161C 97.8333,159 97.8333,157 96.5,155C 99.1667,154.333 99.1667,153.667 96.5,153C 96.5,148.667 96.5,144.333 96.5,140C 99.1667,139.333 99.1667,138.667 96.5,138C 97.8333,136 97.8333,134 96.5,132C 99.1667,131.333 99.1667,130.667 96.5,130C 96.5649,128.171 96.8982,126.338 97.5,124.5 Z"/></g>
<g><path style="opacity:1" fill="#c947e0" d="M 340.5,124.5 C 342.833,124.5 345.167,124.5 347.5,124.5C 348.209,125.404 349.209,125.737 350.5,125.5C 350.5,127.167 350.5,128.833 350.5,130.5C 352.359,130.461 353.692,131.294 354.5,133C 353.217,145.491 353.217,158.157 354.5,171C 354.091,173.947 353.091,176.614 351.5,179C 353.072,181.038 354.072,183.371 354.5,186C 354.025,195.232 353.692,204.399 353.5,213.5C 352.5,213.5 351.5,213.5 350.5,213.5C 350.5,214.833 350.5,216.167 350.5,217.5C 351.5,217.5 352.5,217.5 353.5,217.5C 353.65,227.881 353.65,238.048 353.5,248C 354.167,248.333 354.833,248.667 355.5,249C 354.426,249.739 353.759,250.739 353.5,252C 353.439,265.074 353.773,278.407 354.5,292C 354.091,294.947 353.091,297.614 351.5,300C 353.072,302.038 354.072,304.371 354.5,307C 354.081,320.377 353.748,333.877 353.5,347.5C 351.901,347.232 350.568,347.566 349.5,348.5C 347.833,348.5 346.167,348.5 344.5,348.5C 344.082,347.778 343.416,347.278 342.5,347C 343.925,345.286 343.592,343.953 341.5,343C 343.957,341.846 343.957,340.512 341.5,339C 344.054,336.731 344.054,334.398 341.5,332C 344.167,330.667 344.167,329.333 341.5,328C 343.957,326.846 343.957,325.512 341.5,324C 344.167,322.667 344.167,321.333 341.5,320C 344.003,318.216 344.003,316.549 341.5,315C 343.957,313.846 343.957,312.512 341.5,311C 344.167,309.667 344.167,308.333 341.5,307C 343.957,305.846 343.957,304.512 341.5,303C 344.167,302 344.167,301 341.5,300C 343.957,298.846 343.957,297.512 341.5,296C 344.167,294.667 344.167,293.333 341.5,292C 343.957,290.846 343.957,289.512 341.5,288C 342.428,287.612 343.095,286.945 343.5,286C 342.576,284.85 342.576,283.85 343.5,283C 342.833,282.333 342.167,281.667 341.5,281C 344.167,279.667 344.167,278.333 341.5,277C 343.957,275.846 343.957,274.512 341.5,273C 344.167,271.667 344.167,270.333 341.5,269C 342.308,268.692 342.975,268.192 343.5,267.5C 342.385,266.402 342.385,265.235 343.5,264C 343.095,263.055 342.428,262.388 341.5,262C 343.957,260.846 343.957,259.512 341.5,258C 344.167,256.667 344.167,255.333 341.5,254C 342.308,253.692 342.975,253.192 343.5,252.5C 342.385,251.402 342.385,250.235 343.5,249C 343.095,248.055 342.428,247.388 341.5,247C 343.957,245.846 343.957,244.512 341.5,243C 344.167,241.667 344.167,240.333 341.5,239C 343.957,237.846 343.957,236.512 341.5,235C 342.308,234.692 342.975,234.192 343.5,233.5C 342.167,232.5 342.167,231.5 343.5,230.5C 343.023,229.522 342.357,228.689 341.5,228C 344.167,226.667 344.167,225.333 341.5,224C 343.957,222.846 343.957,221.512 341.5,220C 342.428,219.612 343.095,218.945 343.5,218C 342.576,216.85 342.576,215.85 343.5,215C 342.833,214.333 342.167,213.667 341.5,213C 344.167,211.667 344.167,210.333 341.5,209C 343.957,207.846 343.957,206.512 341.5,205C 344.167,203.667 344.167,202.333 341.5,201C 342.308,200.692 342.975,200.192 343.5,199.5C 342.385,198.402 342.385,197.235 343.5,196C 343.095,195.055 342.428,194.388 341.5,194C 343.957,192.846 343.957,191.512 341.5,190C 344.167,188.667 344.167,187.333 341.5,186C 343.957,184.846 343.957,183.512 341.5,182C 344.167,181 344.167,180 341.5,179C 343.957,177.846 343.957,176.512 341.5,175C 344.167,173.667 344.167,172.333 341.5,171C 343.957,169.846 343.957,168.512 341.5,167C 344.054,164.731 344.054,162.398 341.5,160C 344.167,158.667 344.167,157.333 341.5,156C 343.957,154.846 343.957,153.512 341.5,152C 344.167,150.667 344.167,149.333 341.5,148C 344.167,147 344.167,146 341.5,145C 344.167,143.667 344.167,142.333 341.5,141C 343.957,139.846 343.957,138.512 341.5,137C 344.167,135.667 344.167,134.333 341.5,133C 342.308,132.692 342.975,132.192 343.5,131.5C 342.385,130.402 342.385,129.235 343.5,128C 342.456,126.826 341.456,125.659 340.5,124.5 Z"/></g>
<g><path style="opacity:0.655" fill="#3a6f7d" d="M 62.5,124.5 C 62.0269,125.906 61.0269,126.573 59.5,126.5C 59.9731,125.094 60.9731,124.427 62.5,124.5 Z"/></g>
<g><path style="opacity:1" fill="#54d8fd" d="M 62.5,124.5 C 68.8333,124.5 75.1667,124.5 81.5,124.5C 78.6946,125.319 75.6946,125.819 72.5,126C 72.8333,126.333 73.1667,126.667 73.5,127C 72.6919,127.308 72.0253,127.808 71.5,128.5C 74.028,129.517 74.028,130.684 71.5,132C 74.1667,133.333 74.1667,134.667 71.5,136C 74.1667,137.333 74.1667,138.667 71.5,140C 74.1667,141.333 74.1667,142.667 71.5,144C 73.4224,145.46 74.0891,147.127 73.5,149C 70.8333,150.333 70.8333,151.667 73.5,153C 70.8333,154.333 70.8333,155.667 73.5,157C 70.8333,158.333 70.8333,159.667 73.5,161C 72.3595,161.741 72.3595,162.575 73.5,163.5C 74.9492,164.172 76.2825,164.839 77.5,165.5C 73.5,165.5 69.5,165.5 65.5,165.5C 64.1667,165.5 62.8333,165.5 61.5,165.5C 60.1667,163.5 58.5,161.833 56.5,160.5C 56.3335,151.161 56.5002,141.827 57,132.5C 57.6552,130.372 58.4886,128.372 59.5,126.5C 61.0269,126.573 62.0269,125.906 62.5,124.5 Z"/></g>
<g><path style="opacity:1" fill="#68bdf8" d="M 114.5,124.5 C 119.167,124.5 123.833,124.5 128.5,124.5C 128.5,124.833 128.5,125.167 128.5,125.5C 125.603,125.125 122.937,125.625 120.5,127C 121.64,139.097 121.64,151.263 120.5,163.5C 122.969,164.168 125.302,164.835 127.5,165.5C 125.901,165.232 124.568,165.566 123.5,166.5C 113.833,166.5 104.167,166.5 94.5,166.5C 95.5676,165.566 96.901,165.232 98.5,165.5C 105.323,166.024 109.323,165.691 110.5,164.5C 110.64,162.876 109.973,161.71 108.5,161C 111.167,160.333 111.167,159.667 108.5,159C 111.167,158.333 111.167,157.667 108.5,157C 111.167,155.667 111.167,154.333 108.5,153C 111.167,152.333 111.167,151.667 108.5,151C 111.167,150.333 111.167,149.667 108.5,149C 111.167,147.333 111.167,145.667 108.5,144C 111.167,143.333 111.167,142.667 108.5,142C 111.167,140.667 111.167,139.333 108.5,138C 111.167,137.333 111.167,136.667 108.5,136C 111.167,135.333 111.167,134.667 108.5,134C 111.167,132.667 111.167,131.333 108.5,130C 111.167,129 111.167,128 108.5,127C 110.611,126.155 112.611,125.322 114.5,124.5 Z"/></g>
<g><path style="opacity:1" fill="#6db8f8" d="M 128.5,125.5 C 130.665,125.116 132.332,125.783 133.5,127.5C 133.402,137.687 133.402,147.854 133.5,158C 133.097,159.473 132.43,160.806 131.5,162C 131.957,162.414 132.291,162.914 132.5,163.5C 130.978,164.562 129.312,165.229 127.5,165.5C 125.302,164.835 122.969,164.168 120.5,163.5C 121.64,151.263 121.64,139.097 120.5,127C 122.937,125.625 125.603,125.125 128.5,125.5 Z"/></g>
<g><path style="opacity:1" fill="#72b1f5" d="M 128.5,125.5 C 128.5,125.167 128.5,124.833 128.5,124.5C 133.167,124.5 137.833,124.5 142.5,124.5C 143.568,125.434 144.901,125.768 146.5,125.5C 147.569,138.884 147.236,152.051 145.5,165C 149.821,165.499 154.154,165.666 158.5,165.5C 159.791,165.263 160.791,165.596 161.5,166.5C 148.833,166.5 136.167,166.5 123.5,166.5C 124.568,165.566 125.901,165.232 127.5,165.5C 129.312,165.229 130.978,164.562 132.5,163.5C 132.291,162.914 131.957,162.414 131.5,162C 132.43,160.806 133.097,159.473 133.5,158C 133.402,147.854 133.402,137.687 133.5,127.5C 132.332,125.783 130.665,125.116 128.5,125.5 Z"/></g>
<g><path style="opacity:1" fill="#78abf5" d="M 142.5,124.5 C 146.167,124.5 149.833,124.5 153.5,124.5C 155.292,125.309 157.292,125.809 159.5,126C 157.009,126.626 157.009,127.459 159.5,128.5C 157.009,129.541 157.009,130.374 159.5,131C 156.833,131.667 156.833,132.333 159.5,133C 156.833,133.667 156.833,134.333 159.5,135C 156.833,135.667 156.833,136.333 159.5,137C 156.833,137.667 156.833,138.333 159.5,139C 156.833,139.667 156.833,140.333 159.5,141C 156.833,141.667 156.833,142.333 159.5,143C 156.833,143.667 156.833,144.333 159.5,145C 156.833,146 156.833,147 159.5,148C 156.833,148.667 156.833,149.333 159.5,150C 156.833,150.667 156.833,151.333 159.5,152C 156.833,152.667 156.833,153.333 159.5,154C 156.833,154.667 156.833,155.333 159.5,156C 156.833,156.667 156.833,157.333 159.5,158C 156.833,158.667 156.833,159.333 159.5,160C 156.833,160.667 156.833,161.333 159.5,162C 157.273,162.704 156.94,163.871 158.5,165.5C 154.154,165.666 149.821,165.499 145.5,165C 147.236,152.051 147.569,138.884 146.5,125.5C 144.901,125.768 143.568,125.434 142.5,124.5 Z"/></g>
<g><path style="opacity:1" fill="#7da5f4" d="M 153.5,124.5 C 157.167,124.5 160.833,124.5 164.5,124.5C 166.292,125.309 168.292,125.809 170.5,126C 169.589,139.244 169.589,152.744 170.5,166.5C 167.5,166.5 164.5,166.5 161.5,166.5C 160.791,165.596 159.791,165.263 158.5,165.5C 156.94,163.871 157.273,162.704 159.5,162C 156.833,161.333 156.833,160.667 159.5,160C 156.833,159.333 156.833,158.667 159.5,158C 156.833,157.333 156.833,156.667 159.5,156C 156.833,155.333 156.833,154.667 159.5,154C 156.833,153.333 156.833,152.667 159.5,152C 156.833,151.333 156.833,150.667 159.5,150C 156.833,149.333 156.833,148.667 159.5,148C 156.833,147 156.833,146 159.5,145C 156.833,144.333 156.833,143.667 159.5,143C 156.833,142.333 156.833,141.667 159.5,141C 156.833,140.333 156.833,139.667 159.5,139C 156.833,138.333 156.833,137.667 159.5,137C 156.833,136.333 156.833,135.667 159.5,135C 156.833,134.333 156.833,133.667 159.5,133C 156.833,132.333 156.833,131.667 159.5,131C 157.009,130.374 157.009,129.541 159.5,128.5C 157.009,127.459 157.009,126.626 159.5,126C 157.292,125.809 155.292,125.309 153.5,124.5 Z"/></g>
<g><path style="opacity:1" fill="#829ff3" d="M 164.5,124.5 C 165.5,124.5 166.5,124.5 167.5,124.5C 172.193,124.54 176.859,124.873 181.5,125.5C 180.168,139.832 180.168,154.166 181.5,168.5C 177.821,168.276 174.154,167.942 170.5,167.5C 170.5,167.167 170.5,166.833 170.5,166.5C 169.589,152.744 169.589,139.244 170.5,126C 168.292,125.809 166.292,125.309 164.5,124.5 Z"/></g>
<g><path style="opacity:0.6" fill="#5e4a75" d="M 267.5,124.5 C 267.027,125.906 266.027,126.573 264.5,126.5C 264.973,125.094 265.973,124.427 267.5,124.5 Z"/></g>
<g><path style="opacity:1" fill="#a16ada" d="M 267.5,124.5 C 268.167,124.5 268.833,124.5 269.5,124.5C 273.021,125.166 276.687,125.833 280.5,126.5C 280.469,139.198 280.469,151.864 280.5,164.5C 279.624,165.251 278.624,165.751 277.5,166C 282.823,166.499 288.156,166.666 293.5,166.5C 298.5,166.5 303.5,166.5 308.5,166.5C 307.737,167.268 306.737,167.768 305.5,168C 293.5,168.667 281.5,168.667 269.5,168C 267.68,167.8 266.347,166.966 265.5,165.5C 265.144,163.81 264.144,162.81 262.5,162.5C 261.732,161.737 261.232,160.737 261,159.5C 260.333,150.5 260.333,141.5 261,132.5C 261.232,131.263 261.732,130.263 262.5,129.5C 263.906,129.027 264.573,128.027 264.5,126.5C 266.027,126.573 267.027,125.906 267.5,124.5 Z"/></g>
<g><path style="opacity:1" fill="#b066e7" d="M 269.5,124.5 C 276.5,124.5 283.5,124.5 290.5,124.5C 292.076,125.283 293.409,126.45 294.5,128C 293.865,140.78 293.531,153.614 293.5,166.5C 288.156,166.666 282.823,166.499 277.5,166C 278.624,165.751 279.624,165.251 280.5,164.5C 280.469,151.864 280.469,139.198 280.5,126.5C 276.687,125.833 273.021,125.166 269.5,124.5 Z"/></g>
<g><path style="opacity:1" fill="#b35de0" d="M 290.5,124.5 C 296.167,124.5 301.833,124.5 307.5,124.5C 309.404,124.738 310.738,125.738 311.5,127.5C 311.427,129.027 312.094,130.027 313.5,130.5C 314.974,141.194 314.808,151.861 313,162.5C 311.629,164.041 310.129,165.375 308.5,166.5C 303.5,166.5 298.5,166.5 293.5,166.5C 293.531,153.614 293.865,140.78 294.5,128C 293.409,126.45 292.076,125.283 290.5,124.5 Z"/></g>
<g><path style="opacity:1" fill="#c44ce0" d="M 340.5,124.5 C 341.456,125.659 342.456,126.826 343.5,128C 342.385,129.235 342.385,130.402 343.5,131.5C 342.975,132.192 342.308,132.692 341.5,133C 344.167,134.333 344.167,135.667 341.5,137C 343.957,138.512 343.957,139.846 341.5,141C 344.167,142.333 344.167,143.667 341.5,145C 344.167,146 344.167,147 341.5,148C 344.167,149.333 344.167,150.667 341.5,152C 343.957,153.512 343.957,154.846 341.5,156C 344.167,157.333 344.167,158.667 341.5,160C 344.054,162.398 344.054,164.731 341.5,167C 343.957,168.512 343.957,169.846 341.5,171C 344.167,172.333 344.167,173.667 341.5,175C 343.957,176.512 343.957,177.846 341.5,179C 344.167,180 344.167,181 341.5,182C 343.957,183.512 343.957,184.846 341.5,186C 344.167,187.333 344.167,188.667 341.5,190C 343.957,191.512 343.957,192.846 341.5,194C 342.428,194.388 343.095,195.055 343.5,196C 342.385,197.235 342.385,198.402 343.5,199.5C 342.975,200.192 342.308,200.692 341.5,201C 344.167,202.333 344.167,203.667 341.5,205C 343.957,206.512 343.957,207.846 341.5,209C 344.167,210.333 344.167,211.667 341.5,213C 342.167,213.667 342.833,214.333 343.5,215C 342.576,215.85 342.576,216.85 343.5,218C 343.095,218.945 342.428,219.612 341.5,220C 343.957,221.512 343.957,222.846 341.5,224C 344.167,225.333 344.167,226.667 341.5,228C 342.357,228.689 343.023,229.522 343.5,230.5C 342.167,231.5 342.167,232.5 343.5,233.5C 342.975,234.192 342.308,234.692 341.5,235C 343.957,236.512 343.957,237.846 341.5,239C 344.167,240.333 344.167,241.667 341.5,243C 343.957,244.512 343.957,245.846 341.5,247C 342.428,247.388 343.095,248.055 343.5,249C 342.385,250.235 342.385,251.402 343.5,252.5C 342.975,253.192 342.308,253.692 341.5,254C 344.167,255.333 344.167,256.667 341.5,258C 343.957,259.512 343.957,260.846 341.5,262C 342.428,262.388 343.095,263.055 343.5,264C 342.385,265.235 342.385,266.402 343.5,267.5C 342.975,268.192 342.308,268.692 341.5,269C 344.167,270.333 344.167,271.667 341.5,273C 343.957,274.512 343.957,275.846 341.5,277C 344.167,278.333 344.167,279.667 341.5,281C 342.167,281.667 342.833,282.333 343.5,283C 342.576,283.85 342.576,284.85 343.5,286C 343.095,286.945 342.428,287.612 341.5,288C 343.957,289.512 343.957,290.846 341.5,292C 344.167,293.333 344.167,294.667 341.5,296C 343.957,297.512 343.957,298.846 341.5,300C 344.167,301 344.167,302 341.5,303C 343.957,304.512 343.957,305.846 341.5,307C 344.167,308.333 344.167,309.667 341.5,311C 343.957,312.512 343.957,313.846 341.5,315C 344.003,316.549 344.003,318.216 341.5,320C 344.167,321.333 344.167,322.667 341.5,324C 343.957,325.512 343.957,326.846 341.5,328C 344.167,329.333 344.167,330.667 341.5,332C 344.054,334.398 344.054,336.731 341.5,339C 343.957,340.512 343.957,341.846 341.5,343C 343.592,343.953 343.925,345.286 342.5,347C 343.416,347.278 344.082,347.778 344.5,348.5C 342.097,348.552 339.764,348.219 337.5,347.5C 336.598,345.659 335.264,344.326 333.5,343.5C 332.596,342.791 332.263,341.791 332.5,340.5C 332.18,270.144 332.513,199.811 333.5,129.5C 335.167,128.5 336.5,127.167 337.5,125.5C 338.609,125.443 339.609,125.11 340.5,124.5 Z"/></g>
<g><path style="opacity:1" fill="#cf41df" d="M 347.5,124.5 C 353.5,124.5 359.5,124.5 365.5,124.5C 365.842,125.338 366.508,125.672 367.5,125.5C 367.082,126.222 366.416,126.722 365.5,127C 366.308,127.308 366.975,127.808 367.5,128.5C 366.359,129.425 366.359,130.259 367.5,131C 364.833,131.667 364.833,132.333 367.5,133C 364.833,133.667 364.833,134.333 367.5,135C 364.833,135.667 364.833,136.333 367.5,137C 366.167,137.667 366.167,138.333 367.5,139C 364.833,139.667 364.833,140.333 367.5,141C 364.833,141.667 364.833,142.333 367.5,143C 364.833,143.667 364.833,144.333 367.5,145C 365.109,146.309 365.109,147.309 367.5,148C 364.833,148.667 364.833,149.333 367.5,150C 364.833,150.667 364.833,151.333 367.5,152C 366.167,152.667 366.167,153.333 367.5,154C 364.833,154.667 364.833,155.333 367.5,156C 364.833,156.667 364.833,157.333 367.5,158C 364.833,158.667 364.833,159.333 367.5,160C 367.943,161.518 367.276,162.685 365.5,163.5C 367.991,164.541 367.991,165.374 365.5,166C 366.167,166.333 366.833,166.667 367.5,167C 366.167,167.667 366.167,168.333 367.5,169C 364.833,169.667 364.833,170.333 367.5,171C 364.833,171.667 364.833,172.333 367.5,173C 364.833,173.667 364.833,174.333 367.5,175C 366.167,175.667 366.167,176.333 367.5,177C 364.833,177.667 364.833,178.333 367.5,179C 364.833,180 364.833,181 367.5,182C 366.167,182.667 366.167,183.333 367.5,184C 364.833,184.667 364.833,185.333 367.5,186C 364.833,186.667 364.833,187.333 367.5,188C 364.833,188.667 364.833,189.333 367.5,190C 366.167,190.667 366.167,191.333 367.5,192C 364.833,192.667 364.833,193.333 367.5,194C 364.833,194.667 364.833,195.333 367.5,196C 365.109,196.691 365.109,197.691 367.5,199C 364.833,199.667 364.833,200.333 367.5,201C 364.833,201.667 364.833,202.333 367.5,203C 364.833,203.667 364.833,204.333 367.5,205C 366.167,205.667 366.167,206.333 367.5,207C 364.833,207.667 364.833,208.333 367.5,209C 364.833,209.667 364.833,210.333 367.5,211C 364.833,211.667 364.833,212.333 367.5,213C 366.359,213.741 366.359,214.575 367.5,215.5C 365.009,216.541 365.009,217.374 367.5,218C 364.833,218.667 364.833,219.333 367.5,220C 366.167,220.667 366.167,221.333 367.5,222C 364.833,222.667 364.833,223.333 367.5,224C 364.833,224.667 364.833,225.333 367.5,226C 364.833,226.667 364.833,227.333 367.5,228C 366.167,228.667 366.167,229.333 367.5,230C 365.009,230.626 365.009,231.459 367.5,232.5C 365.009,233.541 365.009,234.374 367.5,235C 366.167,235.667 366.167,236.333 367.5,237C 364.833,237.667 364.833,238.333 367.5,239C 364.833,239.667 364.833,240.333 367.5,241C 364.833,241.667 364.833,242.333 367.5,243C 366.167,243.667 366.167,244.333 367.5,245C 364.833,245.667 364.833,246.333 367.5,247C 365.009,247.626 365.009,248.459 367.5,249.5C 366.359,250.425 366.359,251.259 367.5,252C 364.833,252.667 364.833,253.333 367.5,254C 364.833,254.667 364.833,255.333 367.5,256C 364.833,256.667 364.833,257.333 367.5,258C 366.167,258.667 366.167,259.333 367.5,260C 364.833,260.667 364.833,261.333 367.5,262C 364.833,262.667 364.833,263.333 367.5,264C 365.009,264.626 365.009,265.459 367.5,266.5C 365.009,267.541 365.009,268.374 367.5,269C 364.833,269.667 364.833,270.333 367.5,271C 364.833,271.667 364.833,272.333 367.5,273C 366.167,273.667 366.167,274.333 367.5,275C 364.833,275.667 364.833,276.333 367.5,277C 364.833,277.667 364.833,278.333 367.5,279C 364.833,279.667 364.833,280.333 367.5,281C 366.359,281.741 366.359,282.575 367.5,283.5C 365.009,284.541 365.009,285.374 367.5,286C 364.833,286.667 364.833,287.333 367.5,288C 366.167,288.667 366.167,289.333 367.5,290C 364.833,290.667 364.833,291.333 367.5,292C 364.833,292.667 364.833,293.333 367.5,294C 364.833,294.667 364.833,295.333 367.5,296C 366.167,296.667 366.167,297.333 367.5,298C 364.833,298.667 364.833,299.333 367.5,300C 364.833,301 364.833,302 367.5,303C 366.167,303.667 366.167,304.333 367.5,305C 364.833,305.667 364.833,306.333 367.5,307C 364.833,307.667 364.833,308.333 367.5,309C 364.833,309.667 364.833,310.333 367.5,311C 366.167,311.667 366.167,312.333 367.5,313C 364.833,313.667 364.833,314.333 367.5,315C 364.833,315.667 364.833,316.333 367.5,317C 365.109,317.691 365.109,318.691 367.5,320C 364.833,320.667 364.833,321.333 367.5,322C 364.833,322.667 364.833,323.333 367.5,324C 366.167,324.667 366.167,325.333 367.5,326C 364.833,326.667 364.833,327.333 367.5,328C 364.833,328.667 364.833,329.333 367.5,330C 364.833,330.667 364.833,331.333 367.5,332C 367.943,333.518 367.276,334.685 365.5,335.5C 367.991,336.541 367.991,337.374 365.5,338C 366.167,338.333 366.833,338.667 367.5,339C 366.167,339.667 366.167,340.333 367.5,341C 364.833,341.667 364.833,342.333 367.5,343C 364.833,343.667 364.833,344.333 367.5,345C 366.833,345.333 366.167,345.667 365.5,346C 366.756,346.417 367.423,347.25 367.5,348.5C 361.5,348.5 355.5,348.5 349.5,348.5C 350.568,347.566 351.901,347.232 353.5,347.5C 353.748,333.877 354.081,320.377 354.5,307C 354.072,304.371 353.072,302.038 351.5,300C 353.091,297.614 354.091,294.947 354.5,292C 353.773,278.407 353.439,265.074 353.5,252C 353.759,250.739 354.426,249.739 355.5,249C 354.833,248.667 354.167,248.333 353.5,248C 353.65,238.048 353.65,227.881 353.5,217.5C 352.5,217.5 351.5,217.5 350.5,217.5C 350.5,216.167 350.5,214.833 350.5,213.5C 351.5,213.5 352.5,213.5 353.5,213.5C 353.692,204.399 354.025,195.232 354.5,186C 354.072,183.371 353.072,181.038 351.5,179C 353.091,176.614 354.091,173.947 354.5,171C 353.217,158.157 353.217,145.491 354.5,133C 353.692,131.294 352.359,130.461 350.5,130.5C 350.5,128.833 350.5,127.167 350.5,125.5C 349.209,125.737 348.209,125.404 347.5,124.5 Z"/></g>
<g><path style="opacity:1" fill="#d23cdd" d="M 367.5,125.5 C 369.604,125.201 371.604,125.534 373.5,126.5C 372.965,197.732 372.631,269.232 372.5,341C 373.227,342.399 373.727,343.899 374,345.5C 374.383,344.944 374.883,344.611 375.5,344.5C 374.674,346.264 373.341,347.598 371.5,348.5C 370.167,348.5 368.833,348.5 367.5,348.5C 367.423,347.25 366.756,346.417 365.5,346C 366.167,345.667 366.833,345.333 367.5,345C 364.833,344.333 364.833,343.667 367.5,343C 364.833,342.333 364.833,341.667 367.5,341C 366.167,340.333 366.167,339.667 367.5,339C 366.833,338.667 366.167,338.333 365.5,338C 367.991,337.374 367.991,336.541 365.5,335.5C 367.276,334.685 367.943,333.518 367.5,332C 364.833,331.333 364.833,330.667 367.5,330C 364.833,329.333 364.833,328.667 367.5,328C 364.833,327.333 364.833,326.667 367.5,326C 366.167,325.333 366.167,324.667 367.5,324C 364.833,323.333 364.833,322.667 367.5,322C 364.833,321.333 364.833,320.667 367.5,320C 365.109,318.691 365.109,317.691 367.5,317C 364.833,316.333 364.833,315.667 367.5,315C 364.833,314.333 364.833,313.667 367.5,313C 366.167,312.333 366.167,311.667 367.5,311C 364.833,310.333 364.833,309.667 367.5,309C 364.833,308.333 364.833,307.667 367.5,307C 364.833,306.333 364.833,305.667 367.5,305C 366.167,304.333 366.167,303.667 367.5,303C 364.833,302 364.833,301 367.5,300C 364.833,299.333 364.833,298.667 367.5,298C 366.167,297.333 366.167,296.667 367.5,296C 364.833,295.333 364.833,294.667 367.5,294C 364.833,293.333 364.833,292.667 367.5,292C 364.833,291.333 364.833,290.667 367.5,290C 366.167,289.333 366.167,288.667 367.5,288C 364.833,287.333 364.833,286.667 367.5,286C 365.009,285.374 365.009,284.541 367.5,283.5C 366.359,282.575 366.359,281.741 367.5,281C 364.833,280.333 364.833,279.667 367.5,279C 364.833,278.333 364.833,277.667 367.5,277C 364.833,276.333 364.833,275.667 367.5,275C 366.167,274.333 366.167,273.667 367.5,273C 364.833,272.333 364.833,271.667 367.5,271C 364.833,270.333 364.833,269.667 367.5,269C 365.009,268.374 365.009,267.541 367.5,266.5C 365.009,265.459 365.009,264.626 367.5,264C 364.833,263.333 364.833,262.667 367.5,262C 364.833,261.333 364.833,260.667 367.5,260C 366.167,259.333 366.167,258.667 367.5,258C 364.833,257.333 364.833,256.667 367.5,256C 364.833,255.333 364.833,254.667 367.5,254C 364.833,253.333 364.833,252.667 367.5,252C 366.359,251.259 366.359,250.425 367.5,249.5C 365.009,248.459 365.009,247.626 367.5,247C 364.833,246.333 364.833,245.667 367.5,245C 366.167,244.333 366.167,243.667 367.5,243C 364.833,242.333 364.833,241.667 367.5,241C 364.833,240.333 364.833,239.667 367.5,239C 364.833,238.333 364.833,237.667 367.5,237C 366.167,236.333 366.167,235.667 367.5,235C 365.009,234.374 365.009,233.541 367.5,232.5C 365.009,231.459 365.009,230.626 367.5,230C 366.167,229.333 366.167,228.667 367.5,228C 364.833,227.333 364.833,226.667 367.5,226C 364.833,225.333 364.833,224.667 367.5,224C 364.833,223.333 364.833,222.667 367.5,222C 366.167,221.333 366.167,220.667 367.5,220C 364.833,219.333 364.833,218.667 367.5,218C 365.009,217.374 365.009,216.541 367.5,215.5C 366.359,214.575 366.359,213.741 367.5,213C 364.833,212.333 364.833,211.667 367.5,211C 364.833,210.333 364.833,209.667 367.5,209C 364.833,208.333 364.833,207.667 367.5,207C 366.167,206.333 366.167,205.667 367.5,205C 364.833,204.333 364.833,203.667 367.5,203C 364.833,202.333 364.833,201.667 367.5,201C 364.833,200.333 364.833,199.667 367.5,199C 365.109,197.691 365.109,196.691 367.5,196C 364.833,195.333 364.833,194.667 367.5,194C 364.833,193.333 364.833,192.667 367.5,192C 366.167,191.333 366.167,190.667 367.5,190C 364.833,189.333 364.833,188.667 367.5,188C 364.833,187.333 364.833,186.667 367.5,186C 364.833,185.333 364.833,184.667 367.5,184C 366.167,183.333 366.167,182.667 367.5,182C 364.833,181 364.833,180 367.5,179C 364.833,178.333 364.833,177.667 367.5,177C 366.167,176.333 366.167,175.667 367.5,175C 364.833,174.333 364.833,173.667 367.5,173C 364.833,172.333 364.833,171.667 367.5,171C 364.833,170.333 364.833,169.667 367.5,169C 366.167,168.333 366.167,167.667 367.5,167C 366.833,166.667 366.167,166.333 365.5,166C 367.991,165.374 367.991,164.541 365.5,163.5C 367.276,162.685 367.943,161.518 367.5,160C 364.833,159.333 364.833,158.667 367.5,158C 364.833,157.333 364.833,156.667 367.5,156C 364.833,155.333 364.833,154.667 367.5,154C 366.167,153.333 366.167,152.667 367.5,152C 364.833,151.333 364.833,150.667 367.5,150C 364.833,149.333 364.833,148.667 367.5,148C 365.109,147.309 365.109,146.309 367.5,145C 364.833,144.333 364.833,143.667 367.5,143C 364.833,142.333 364.833,141.667 367.5,141C 364.833,140.333 364.833,139.667 367.5,139C 366.167,138.333 366.167,137.667 367.5,137C 364.833,136.333 364.833,135.667 367.5,135C 364.833,134.333 364.833,133.667 367.5,133C 364.833,132.333 364.833,131.667 367.5,131C 366.359,130.259 366.359,129.425 367.5,128.5C 366.975,127.808 366.308,127.308 365.5,127C 366.416,126.722 367.082,126.222 367.5,125.5 Z"/></g>
<g><path style="opacity:1" fill="#d538dc" d="M 365.5,124.5 C 369.5,124.5 373.5,124.5 377.5,124.5C 381.164,125.074 384.831,125.907 388.5,127C 387.36,139.097 387.36,151.263 388.5,163.5C 388.291,164.086 387.957,164.586 387.5,165C 385.5,165.333 383.5,165.667 381.5,166C 386.489,166.499 391.489,166.666 396.5,166.5C 406.5,166.5 416.5,166.5 426.5,166.5C 432.167,166.5 437.833,166.5 443.5,166.5C 442.791,167.404 441.791,167.737 440.5,167.5C 419.167,167.5 397.833,167.5 376.5,167.5C 376.5,226.167 376.5,284.833 376.5,343.5C 376.5,344.167 376.167,344.5 375.5,344.5C 374.883,344.611 374.383,344.944 374,345.5C 373.727,343.899 373.227,342.399 372.5,341C 372.631,269.232 372.965,197.732 373.5,126.5C 371.604,125.534 369.604,125.201 367.5,125.5C 366.508,125.672 365.842,125.338 365.5,124.5 Z"/></g>
<g><path style="opacity:1" fill="#dd2fdb" d="M 377.5,124.5 C 381.833,124.5 386.167,124.5 390.5,124.5C 394.353,125.166 398.353,125.833 402.5,126.5C 402.833,127.167 403.167,127.833 403.5,128.5C 402.32,139.987 402.32,151.487 403.5,163C 401.454,164.842 399.12,166.009 396.5,166.5C 391.489,166.666 386.489,166.499 381.5,166C 383.5,165.667 385.5,165.333 387.5,165C 387.957,164.586 388.291,164.086 388.5,163.5C 387.36,151.263 387.36,139.097 388.5,127C 384.831,125.907 381.164,125.074 377.5,124.5 Z"/></g>
<g><path style="opacity:1" fill="#e526d9" d="M 390.5,124.5 C 401.833,124.5 413.167,124.5 424.5,124.5C 425.263,125.268 426.263,125.768 427.5,126C 426.77,139.389 426.437,152.889 426.5,166.5C 416.5,166.5 406.5,166.5 396.5,166.5C 399.12,166.009 401.454,164.842 403.5,163C 402.32,151.487 402.32,139.987 403.5,128.5C 403.167,127.833 402.833,127.167 402.5,126.5C 398.353,125.833 394.353,125.166 390.5,124.5 Z"/></g>
<g><path style="opacity:1" fill="#ec1cd5" d="M 424.5,124.5 C 429.167,124.5 433.833,124.5 438.5,124.5C 439.833,124.5 441.167,124.5 442.5,124.5C 443.492,124.328 444.158,124.662 444.5,125.5C 444.738,127.404 445.738,128.738 447.5,129.5C 448.391,130.261 449.058,131.261 449.5,132.5C 448.167,141.5 448.167,150.5 449.5,159.5C 448.192,162.464 446.192,164.797 443.5,166.5C 437.833,166.5 432.167,166.5 426.5,166.5C 426.437,152.889 426.77,139.389 427.5,126C 426.263,125.768 425.263,125.268 424.5,124.5 Z"/></g>
<g><path style="opacity:0.839" fill="#813676" d="M 444.5,125.5 C 446.262,126.262 447.262,127.596 447.5,129.5C 445.738,128.738 444.738,127.404 444.5,125.5 Z"/></g>
<g><path style="opacity:1" fill="#8596ed" d="M 181.5,125.5 C 182.833,125.5 184.167,125.5 185.5,125.5C 187.099,125.232 188.432,125.566 189.5,126.5C 190.99,128.28 192.99,128.946 195.5,128.5C 195.833,128.5 196.167,128.5 196.5,128.5C 196.833,129.167 197.167,129.833 197.5,130.5C 196.711,130.783 196.044,131.283 195.5,132C 196.123,148.978 196.123,166.145 195.5,183.5C 195.167,183.5 194.833,183.5 194.5,183.5C 191.5,178.5 187.5,174.5 182.5,171.5C 181.89,170.609 181.557,169.609 181.5,168.5C 180.168,154.166 180.168,139.832 181.5,125.5 Z"/></g>
<g><path style="opacity:0.667" fill="#565c83" d="M 189.5,126.5 C 191.786,126.595 193.786,127.262 195.5,128.5C 192.99,128.946 190.99,128.28 189.5,126.5 Z"/></g>
<g><path style="opacity:0.651" fill="#6c4076" d="M 337.5,125.5 C 336.5,127.167 335.167,128.5 333.5,129.5C 333.833,127.167 335.167,125.833 337.5,125.5 Z"/></g>
<g><path style="opacity:0.51" fill="#644e80" d="M 264.5,126.5 C 264.573,128.027 263.906,129.027 262.5,129.5C 262.427,127.973 263.094,126.973 264.5,126.5 Z"/></g>
<g><path style="opacity:0.373" fill="#494a64" d="M 196.5,128.5 C 198.153,128.66 199.486,129.326 200.5,130.5C 199.5,130.5 198.5,130.5 197.5,130.5C 197.167,129.833 196.833,129.167 196.5,128.5 Z"/></g>
<g><path style="opacity:0.388" fill="#5d4069" d="M 311.5,127.5 C 312.906,127.973 313.573,128.973 313.5,130.5C 312.094,130.027 311.427,129.027 311.5,127.5 Z"/></g>
<g><path style="opacity:1" fill="#8c91ee" d="M 197.5,130.5 C 198.5,130.5 199.5,130.5 200.5,130.5C 204.655,131.742 208.322,133.742 211.5,136.5C 210.178,136.67 209.011,136.337 208,135.5C 207.626,136.416 207.126,137.25 206.5,138C 206.5,163.333 206.5,188.667 206.5,214C 209.167,215 209.167,216 206.5,217C 207.833,227.333 207.833,237.667 206.5,248C 209.167,249 209.167,250 206.5,251C 206.5,252.333 206.5,253.667 206.5,255C 207.244,256.039 208.244,256.539 209.5,256.5C 206.564,258.308 203.564,260.141 200.5,262C 201.823,262.816 202.489,263.983 202.5,265.5C 202.427,267.027 203.094,268.027 204.5,268.5C 204.427,270.027 205.094,271.027 206.5,271.5C 207.401,272.29 208.068,273.29 208.5,274.5C 208.5,275.167 208.5,275.833 208.5,276.5C 207.711,276.783 207.044,277.283 206.5,278C 206.5,279.333 206.5,280.667 206.5,282C 209.167,283 209.167,284 206.5,285C 206.623,296.123 206.623,307.289 206.5,318.5C 208.991,319.541 208.991,320.374 206.5,321C 206.887,327.86 206.887,334.86 206.5,342C 209.145,345.164 208.145,346.331 203.5,345.5C 200.833,344.833 199.167,343.167 198.5,340.5C 198.573,338.973 197.906,337.973 196.5,337.5C 196.728,295.777 196.395,254.443 195.5,213.5C 199.411,203.454 199.411,193.454 195.5,183.5C 196.123,166.145 196.123,148.978 195.5,132C 196.044,131.283 196.711,130.783 197.5,130.5 Z"/></g>
<g><path style="opacity:0.293" fill="#325660" d="M 59.5,126.5 C 58.4886,128.372 57.6552,130.372 57,132.5C 56.5002,141.827 56.3335,151.161 56.5,160.5C 55.3417,150.675 55.1751,140.675 56,130.5C 56.66,128.676 57.8267,127.343 59.5,126.5 Z"/></g>
<g><path style="opacity:1" fill="#908bed" d="M 211.5,136.5 C 214.81,138.482 217.81,140.815 220.5,143.5C 219.233,142.913 218.233,142.913 217.5,143.5C 218.711,144.72 218.711,145.887 217.5,147C 218.167,147.333 218.833,147.667 219.5,148C 218.167,148.667 218.167,149.333 219.5,150C 216.833,150.667 216.833,151.333 219.5,152C 218.167,152.667 218.167,153.333 219.5,154C 216.833,154.667 216.833,155.333 219.5,156C 218.167,156.667 218.167,157.333 219.5,158C 216.833,158.667 216.833,159.333 219.5,160C 218.167,160.667 218.167,161.333 219.5,162C 217.109,162.691 217.109,163.691 219.5,165C 216.833,165.667 216.833,166.333 219.5,167C 218.167,167.667 218.167,168.333 219.5,169C 216.833,169.667 216.833,170.333 219.5,171C 218.167,171.667 218.167,172.333 219.5,173C 216.833,173.667 216.833,174.333 219.5,175C 218.167,175.667 218.167,176.333 219.5,177C 216.833,177.667 216.833,178.333 219.5,179C 217.109,180.309 217.109,181.309 219.5,182C 218.167,182.667 218.167,183.333 219.5,184C 216.833,184.667 216.833,185.333 219.5,186C 218.167,186.667 218.167,187.333 219.5,188C 216.833,188.667 216.833,189.333 219.5,190C 218.167,190.667 218.167,191.333 219.5,192C 216.833,192.667 216.833,193.333 219.5,194C 218.167,194.667 218.167,195.333 219.5,196C 217.109,196.691 217.109,197.691 219.5,199C 216.833,199.667 216.833,200.333 219.5,201C 218.167,201.667 218.167,202.333 219.5,203C 216.833,203.667 216.833,204.333 219.5,205C 218.167,205.667 218.167,206.333 219.5,207C 216.833,207.667 216.833,208.333 219.5,209C 218.167,209.667 218.167,210.333 219.5,211C 216.833,211.667 216.833,212.333 219.5,213C 219.5,214.667 219.5,216.333 219.5,218C 216.833,218.667 216.833,219.333 219.5,220C 218.167,220.667 218.167,221.333 219.5,222C 216.833,222.667 216.833,223.333 219.5,224C 218.167,224.667 218.167,225.333 219.5,226C 216.833,226.667 216.833,227.333 219.5,228C 218.167,228.667 218.167,229.333 219.5,230C 217.009,230.626 217.009,231.459 219.5,232.5C 217.009,233.541 217.009,234.374 219.5,235C 218.167,235.667 218.167,236.333 219.5,237C 216.833,237.667 216.833,238.333 219.5,239C 218.167,239.667 218.167,240.333 219.5,241C 216.833,241.667 216.833,242.333 219.5,243C 218.167,243.667 218.167,244.333 219.5,245C 218.833,245.333 218.167,245.667 217.5,246C 218.736,247.085 220.069,247.918 221.5,248.5C 220.055,250.063 218.389,251.396 216.5,252.5C 214.973,252.427 213.973,253.094 213.5,254.5C 212.486,255.674 211.153,256.34 209.5,256.5C 208.244,256.539 207.244,256.039 206.5,255C 206.5,253.667 206.5,252.333 206.5,251C 209.167,250 209.167,249 206.5,248C 207.833,237.667 207.833,227.333 206.5,217C 209.167,216 209.167,215 206.5,214C 206.5,188.667 206.5,163.333 206.5,138C 207.126,137.25 207.626,136.416 208,135.5C 209.011,136.337 210.178,136.67 211.5,136.5 Z"/></g>
<g><path style="opacity:0.796" fill="#5b547e" d="M 220.5,143.5 C 222.167,144.5 223.5,145.833 224.5,147.5C 222.167,147.167 220.833,145.833 220.5,143.5 Z"/></g>
<g><path style="opacity:1" fill="#9385e9" d="M 220.5,143.5 C 220.833,145.833 222.167,147.167 224.5,147.5C 224.738,149.404 225.738,150.738 227.5,151.5C 229.984,153.8 231.984,156.467 233.5,159.5C 232.542,159.047 231.708,158.381 231,157.5C 229.266,158.249 227.433,158.749 225.5,159C 230.833,159.667 230.833,160.333 225.5,161C 230.721,161.542 230.721,162.376 225.5,163.5C 230.721,164.624 230.721,165.458 225.5,166C 230.833,166.667 230.833,167.333 225.5,168C 230.833,168.667 230.833,169.333 225.5,170C 228.167,170.667 228.167,171.333 225.5,172C 230.833,172.667 230.833,173.333 225.5,174C 230.833,174.667 230.833,175.333 225.5,176C 230.833,176.667 230.833,177.333 225.5,178C 227.991,178.626 227.991,179.459 225.5,180.5C 230.721,181.624 230.721,182.458 225.5,183C 230.833,183.667 230.833,184.333 225.5,185C 228.167,185.667 228.167,186.333 225.5,187C 230.833,187.667 230.833,188.333 225.5,189C 230.833,189.667 230.833,190.333 225.5,191C 230.833,191.667 230.833,192.333 225.5,193C 228.167,193.667 228.167,194.333 225.5,195C 230.721,195.542 230.721,196.376 225.5,197.5C 230.721,198.624 230.721,199.458 225.5,200C 228.167,200.667 228.167,201.333 225.5,202C 230.833,202.667 230.833,203.333 225.5,204C 230.833,204.667 230.833,205.333 225.5,206C 230.833,206.667 230.833,207.333 225.5,208C 228.167,208.667 228.167,209.333 225.5,210C 230.833,210.667 230.833,211.333 225.5,212C 230.833,212.667 230.833,213.333 225.5,214C 226.938,214.219 228.271,214.719 229.5,215.5C 228.312,215.307 226.978,215.807 225.5,217C 230.833,217.667 230.833,218.333 225.5,219C 230.833,219.667 230.833,220.333 225.5,221C 230.833,221.667 230.833,222.333 225.5,223C 228.167,223.667 228.167,224.333 225.5,225C 230.833,225.667 230.833,226.333 225.5,227C 230.833,227.667 230.833,228.333 225.5,229C 230.833,229.667 230.833,230.333 225.5,231C 226.978,232.193 228.312,232.693 229.5,232.5C 228.271,233.281 226.938,233.781 225.5,234C 227.676,234.163 229.509,234.996 231,236.5C 231.383,235.944 231.883,235.611 232.5,235.5C 229.954,240.719 226.287,245.052 221.5,248.5C 220.069,247.918 218.736,247.085 217.5,246C 218.167,245.667 218.833,245.333 219.5,245C 218.167,244.333 218.167,243.667 219.5,243C 216.833,242.333 216.833,241.667 219.5,241C 218.167,240.333 218.167,239.667 219.5,239C 216.833,238.333 216.833,237.667 219.5,237C 218.167,236.333 218.167,235.667 219.5,235C 217.009,234.374 217.009,233.541 219.5,232.5C 217.009,231.459 217.009,230.626 219.5,230C 218.167,229.333 218.167,228.667 219.5,228C 216.833,227.333 216.833,226.667 219.5,226C 218.167,225.333 218.167,224.667 219.5,224C 216.833,223.333 216.833,222.667 219.5,222C 218.167,221.333 218.167,220.667 219.5,220C 216.833,219.333 216.833,218.667 219.5,218C 219.5,216.333 219.5,214.667 219.5,213C 216.833,212.333 216.833,211.667 219.5,211C 218.167,210.333 218.167,209.667 219.5,209C 216.833,208.333 216.833,207.667 219.5,207C 218.167,206.333 218.167,205.667 219.5,205C 216.833,204.333 216.833,203.667 219.5,203C 218.167,202.333 218.167,201.667 219.5,201C 216.833,200.333 216.833,199.667 219.5,199C 217.109,197.691 217.109,196.691 219.5,196C 218.167,195.333 218.167,194.667 219.5,194C 216.833,193.333 216.833,192.667 219.5,192C 218.167,191.333 218.167,190.667 219.5,190C 216.833,189.333 216.833,188.667 219.5,188C 218.167,187.333 218.167,186.667 219.5,186C 216.833,185.333 216.833,184.667 219.5,184C 218.167,183.333 218.167,182.667 219.5,182C 217.109,181.309 217.109,180.309 219.5,179C 216.833,178.333 216.833,177.667 219.5,177C 218.167,176.333 218.167,175.667 219.5,175C 216.833,174.333 216.833,173.667 219.5,173C 218.167,172.333 218.167,171.667 219.5,171C 216.833,170.333 216.833,169.667 219.5,169C 218.167,168.333 218.167,167.667 219.5,167C 216.833,166.333 216.833,165.667 219.5,165C 217.109,163.691 217.109,162.691 219.5,162C 218.167,161.333 218.167,160.667 219.5,160C 216.833,159.333 216.833,158.667 219.5,158C 218.167,157.333 218.167,156.667 219.5,156C 216.833,155.333 216.833,154.667 219.5,154C 218.167,153.333 218.167,152.667 219.5,152C 216.833,151.333 216.833,150.667 219.5,150C 218.167,149.333 218.167,148.667 219.5,148C 218.833,147.667 218.167,147.333 217.5,147C 218.711,145.887 218.711,144.72 217.5,143.5C 218.233,142.913 219.233,142.913 220.5,143.5 Z"/></g>
<g><path style="opacity:0.702" fill="#564f74" d="M 224.5,147.5 C 226.262,148.262 227.262,149.596 227.5,151.5C 225.738,150.738 224.738,149.404 224.5,147.5 Z"/></g>
<g><path style="opacity:1" fill="#9880e8" d="M 233.5,159.5 C 234.674,160.514 235.34,161.847 235.5,163.5C 236.589,168.767 238.256,173.767 240.5,178.5C 241.468,180.607 241.802,182.941 241.5,185.5C 241.5,193.5 241.5,201.5 241.5,209.5C 241.876,214.261 240.876,218.595 238.5,222.5C 237.262,224.214 236.595,226.214 236.5,228.5C 234.412,230.336 233.079,232.669 232.5,235.5C 231.883,235.611 231.383,235.944 231,236.5C 229.509,234.996 227.676,234.163 225.5,234C 226.938,233.781 228.271,233.281 229.5,232.5C 228.312,232.693 226.978,232.193 225.5,231C 230.833,230.333 230.833,229.667 225.5,229C 230.833,228.333 230.833,227.667 225.5,227C 230.833,226.333 230.833,225.667 225.5,225C 228.167,224.333 228.167,223.667 225.5,223C 230.833,222.333 230.833,221.667 225.5,221C 230.833,220.333 230.833,219.667 225.5,219C 230.833,218.333 230.833,217.667 225.5,217C 226.978,215.807 228.312,215.307 229.5,215.5C 228.271,214.719 226.938,214.219 225.5,214C 230.833,213.333 230.833,212.667 225.5,212C 230.833,211.333 230.833,210.667 225.5,210C 228.167,209.333 228.167,208.667 225.5,208C 230.833,207.333 230.833,206.667 225.5,206C 230.833,205.333 230.833,204.667 225.5,204C 230.833,203.333 230.833,202.667 225.5,202C 228.167,201.333 228.167,200.667 225.5,200C 230.721,199.458 230.721,198.624 225.5,197.5C 230.721,196.376 230.721,195.542 225.5,195C 228.167,194.333 228.167,193.667 225.5,193C 230.833,192.333 230.833,191.667 225.5,191C 230.833,190.333 230.833,189.667 225.5,189C 230.833,188.333 230.833,187.667 225.5,187C 228.167,186.333 228.167,185.667 225.5,185C 230.833,184.333 230.833,183.667 225.5,183C 230.721,182.458 230.721,181.624 225.5,180.5C 227.991,179.459 227.991,178.626 225.5,178C 230.833,177.333 230.833,176.667 225.5,176C 230.833,175.333 230.833,174.667 225.5,174C 230.833,173.333 230.833,172.667 225.5,172C 228.167,171.333 228.167,170.667 225.5,170C 230.833,169.333 230.833,168.667 225.5,168C 230.833,167.333 230.833,166.667 225.5,166C 230.721,165.458 230.721,164.624 225.5,163.5C 230.721,162.376 230.721,161.542 225.5,161C 230.833,160.333 230.833,159.667 225.5,159C 227.433,158.749 229.266,158.249 231,157.5C 231.708,158.381 232.542,159.047 233.5,159.5 Z"/></g>
<g><path style="opacity:0.055" fill="#30444a" d="M 56.5,160.5 C 58.5,161.833 60.1667,163.5 61.5,165.5C 58.8333,164.833 57.1667,163.167 56.5,160.5 Z"/></g>
<g><path style="opacity:0.38" fill="#5e4a78" d="M 262.5,162.5 C 264.144,162.81 265.144,163.81 265.5,165.5C 263.856,165.19 262.856,164.19 262.5,162.5 Z"/></g>
<g><path style="opacity:0.173" fill="#364652" d="M 61.5,165.5 C 62.8333,165.5 64.1667,165.5 65.5,165.5C 74.9856,166.494 84.6522,166.827 94.5,166.5C 104.167,166.5 113.833,166.5 123.5,166.5C 136.167,166.5 148.833,166.5 161.5,166.5C 164.5,166.5 167.5,166.5 170.5,166.5C 170.5,166.833 170.5,167.167 170.5,167.5C 134.832,167.667 99.1651,167.5 63.5,167C 62.5842,166.722 61.9175,166.222 61.5,165.5 Z"/></g>
<g><path style="opacity:0.996" fill="#605382" d="M 235.5,163.5 C 238.227,168.045 239.894,173.045 240.5,178.5C 238.256,173.767 236.589,168.767 235.5,163.5 Z"/></g>
<g><path style="opacity:1" fill="#606fa0" d="M 170.5,167.5 C 174.154,167.942 177.821,168.276 181.5,168.5C 181.557,169.609 181.89,170.609 182.5,171.5C 178.411,170.151 174.411,168.818 170.5,167.5 Z"/></g>
<g><path style="opacity:0.737" fill="#5e507e" d="M 241.5,185.5 C 242.261,189.182 242.928,193.015 243.5,197C 242.92,201.316 242.253,205.483 241.5,209.5C 241.5,201.5 241.5,193.5 241.5,185.5 Z"/></g>
<g><path style="opacity:0.42" fill="#595d87" d="M 194.5,183.5 C 194.833,183.5 195.167,183.5 195.5,183.5C 199.411,193.454 199.411,203.454 195.5,213.5C 194.833,213.5 194.167,213.5 193.5,213.5C 198.404,203.678 198.738,193.678 194.5,183.5 Z"/></g>
<g><path style="opacity:0.662" fill="#6a386c" d="M 440.5,167.5 C 419.671,168.332 398.671,168.832 377.5,169C 378.664,225.429 378.831,281.929 378,338.5C 377.802,340.382 377.302,342.048 376.5,343.5C 376.5,284.833 376.5,226.167 376.5,167.5C 397.833,167.5 419.167,167.5 440.5,167.5 Z"/></g>
<g><path style="opacity:0.875" fill="#5e6595" d="M 193.5,213.5 C 192.833,216.167 191.167,217.833 188.5,218.5C 189.833,216.5 191.5,214.833 193.5,213.5 Z"/></g>
<g><path style="opacity:1" fill="#8697ee" d="M 193.5,213.5 C 194.167,213.5 194.833,213.5 195.5,213.5C 196.395,254.443 196.728,295.777 196.5,337.5C 192.335,331.842 188.668,325.842 185.5,319.5C 184.736,316.982 183.736,314.649 182.5,312.5C 182.064,310.254 181.397,308.087 180.5,306C 181.42,278.581 181.753,251.081 181.5,223.5C 181.5,223.167 181.5,222.833 181.5,222.5C 183.663,220.917 185.996,219.584 188.5,218.5C 191.167,217.833 192.833,216.167 193.5,213.5 Z"/></g>
<g><path style="opacity:0.206" fill="#4d3753" d="M 333.5,129.5 C 332.513,199.811 332.18,270.144 332.5,340.5C 331.335,271.335 331.168,202.001 332,132.5C 332.232,131.263 332.732,130.263 333.5,129.5 Z"/></g>
<g><path style="opacity:0.961" fill="#58648e" d="M 181.5,222.5 C 181.5,222.833 181.5,223.167 181.5,223.5C 179.621,224.341 177.621,224.675 175.5,224.5C 177.302,223.542 179.302,222.875 181.5,222.5 Z"/></g>
<g><path style="opacity:0.073" fill="#2e363c" d="M 170.5,225.5 C 168.052,226.473 165.385,226.806 162.5,226.5C 148.833,226.5 135.167,226.5 121.5,226.5C 102.659,226.17 83.9925,226.503 65.5,227.5C 63.3146,227.704 61.3146,228.37 59.5,229.5C 60.4525,227.39 62.1192,226.223 64.5,226C 99.8318,225.5 135.165,225.333 170.5,225.5 Z"/></g>
<g><path style="opacity:1" fill="#819ef0" d="M 181.5,223.5 C 181.753,251.081 181.42,278.581 180.5,306C 181.397,308.087 182.064,310.254 182.5,312.5C 181.046,310.563 179.379,308.897 177.5,307.5C 175.11,304.434 173.11,301.1 171.5,297.5C 171.896,294.956 171.229,292.789 169.5,291C 170.833,270.333 170.833,249.667 169.5,229C 171.141,226.837 173.141,225.337 175.5,224.5C 177.621,224.675 179.621,224.341 181.5,223.5 Z"/></g>
<g><path style="opacity:0.004" fill="#443e54" d="M 238.5,222.5 C 238.741,224.898 238.074,226.898 236.5,228.5C 236.595,226.214 237.262,224.214 238.5,222.5 Z"/></g>
<g><path style="opacity:1" fill="#7b9fec" d="M 175.5,224.5 C 173.141,225.337 171.141,226.837 169.5,229C 170.833,249.667 170.833,270.333 169.5,291C 171.229,292.789 171.896,294.956 171.5,297.5C 166.337,290.513 161.67,283.18 157.5,275.5C 157.443,274.391 157.11,273.391 156.5,272.5C 157.552,272.351 158.552,272.517 159.5,273C 158.903,274.628 159.237,276.295 160.5,278C 161.483,278.591 162.15,278.257 162.5,277C 161.558,260.313 161.224,243.813 161.5,227.5C 162.167,227.5 162.5,227.167 162.5,226.5C 165.385,226.806 168.052,226.473 170.5,225.5C 172.042,224.699 173.708,224.366 175.5,224.5 Z"/></g>
<g><path style="opacity:1" fill="#54d8fd" d="M 65.5,227.5 C 69.1667,227.5 72.8333,227.5 76.5,227.5C 74.6221,228.208 72.9555,229.374 71.5,231C 72.8333,232 72.8333,233 71.5,234C 74.1667,235.333 74.1667,236.667 71.5,238C 74.1667,239.333 74.1667,240.667 71.5,242C 74.1667,243.333 74.1667,244.667 71.5,246C 74.028,247.316 74.028,248.483 71.5,249.5C 74.028,250.517 74.028,251.684 71.5,253C 74.1667,254.333 74.1667,255.667 71.5,257C 74.1667,258.333 74.1667,259.667 71.5,261C 74.1667,262.333 74.1667,263.667 71.5,265C 72.8333,266 72.8333,267 71.5,268C 74.1667,269.333 74.1667,270.667 71.5,272C 74.1667,273.333 74.1667,274.667 71.5,276C 74.1667,277.333 74.1667,278.667 71.5,280C 74.1667,281.333 74.1667,282.667 71.5,284C 73.8912,284.691 73.8912,285.691 71.5,287C 74.1667,288.333 74.1667,289.667 71.5,291C 74.1667,292.333 74.1667,293.667 71.5,295C 74.1667,296.333 74.1667,297.667 71.5,299C 72.8333,300 72.8333,301 71.5,302C 74.1667,303.333 74.1667,304.667 71.5,306C 74.1667,307.333 74.1667,308.667 71.5,310C 74.1667,311.333 74.1667,312.667 71.5,314C 74.1667,315.333 74.1667,316.667 71.5,318C 73.7811,319.851 73.7811,321.518 71.5,323C 74.1667,324.333 74.1667,325.667 71.5,327C 74.1667,328.333 74.1667,329.667 71.5,331C 74.1667,332.333 74.1667,333.667 71.5,335C 72.8333,336 72.8333,337 71.5,338C 74.1667,339.333 74.1667,340.667 71.5,342C 72.3366,343.011 72.67,344.178 72.5,345.5C 68.4338,345.693 64.4338,345.36 60.5,344.5C 58.2901,344.106 56.9568,342.773 56.5,340.5C 56.3333,305.498 56.5,270.498 57,235.5C 57.9383,233.512 58.7717,231.512 59.5,229.5C 61.3146,228.37 63.3146,227.704 65.5,227.5 Z"/></g>
<g><path style="opacity:1" fill="#59d1fc" d="M 76.5,227.5 C 79.1667,227.5 81.8333,227.5 84.5,227.5C 84.1669,266.168 83.8335,305.168 83.5,344.5C 85.9935,344.131 86.6602,344.797 85.5,346.5C 78.5,346.5 71.5,346.5 64.5,346.5C 62.6203,346.771 61.287,346.104 60.5,344.5C 64.4338,345.36 68.4338,345.693 72.5,345.5C 72.67,344.178 72.3366,343.011 71.5,342C 74.1667,340.667 74.1667,339.333 71.5,338C 72.8333,337 72.8333,336 71.5,335C 74.1667,333.667 74.1667,332.333 71.5,331C 74.1667,329.667 74.1667,328.333 71.5,327C 74.1667,325.667 74.1667,324.333 71.5,323C 73.7811,321.518 73.7811,319.851 71.5,318C 74.1667,316.667 74.1667,315.333 71.5,314C 74.1667,312.667 74.1667,311.333 71.5,310C 74.1667,308.667 74.1667,307.333 71.5,306C 74.1667,304.667 74.1667,303.333 71.5,302C 72.8333,301 72.8333,300 71.5,299C 74.1667,297.667 74.1667,296.333 71.5,295C 74.1667,293.667 74.1667,292.333 71.5,291C 74.1667,289.667 74.1667,288.333 71.5,287C 73.8912,285.691 73.8912,284.691 71.5,284C 74.1667,282.667 74.1667,281.333 71.5,280C 74.1667,278.667 74.1667,277.333 71.5,276C 74.1667,274.667 74.1667,273.333 71.5,272C 74.1667,270.667 74.1667,269.333 71.5,268C 72.8333,267 72.8333,266 71.5,265C 74.1667,263.667 74.1667,262.333 71.5,261C 74.1667,259.667 74.1667,258.333 71.5,257C 74.1667,255.667 74.1667,254.333 71.5,253C 74.028,251.684 74.028,250.517 71.5,249.5C 74.028,248.483 74.028,247.316 71.5,246C 74.1667,244.667 74.1667,243.333 71.5,242C 74.1667,240.667 74.1667,239.333 71.5,238C 74.1667,236.667 74.1667,235.333 71.5,234C 72.8333,233 72.8333,232 71.5,231C 72.9555,229.374 74.6221,228.208 76.5,227.5 Z"/></g>
<g><path style="opacity:1" fill="#5ecafb" d="M 84.5,227.5 C 89.1785,227.334 93.8452,227.501 98.5,228C 95.8333,228.667 95.8333,229.333 98.5,230C 97.8333,230.333 97.1667,230.667 96.5,231C 96.8881,232.808 96.8881,234.475 96.5,236C 99.1667,236.667 99.1667,237.333 96.5,238C 97.8333,240 97.8333,242 96.5,244C 99.1667,244.667 99.1667,245.333 96.5,246C 96.8881,247.525 96.8881,249.192 96.5,251C 99.1667,251.667 99.1667,252.333 96.5,253C 97.8333,255 97.8333,257 96.5,259C 99.1667,259.667 99.1667,260.333 96.5,261C 96.5,262.333 96.5,263.667 96.5,265C 98.8912,266.309 98.8912,267.309 96.5,268C 97.8333,270 97.8333,272 96.5,274C 99.1667,274.667 99.1667,275.333 96.5,276C 97.8333,278 97.8333,280 96.5,282C 98.8912,282.691 98.8912,283.691 96.5,285C 96.5,286.333 96.5,287.667 96.5,289C 99.1667,289.667 99.1667,290.333 96.5,291C 97.8333,293 97.8333,295 96.5,297C 99.1667,297.667 99.1667,298.333 96.5,299C 96.5,300.667 96.5,302.333 96.5,304C 99.1667,304.667 99.1667,305.333 96.5,306C 97.8333,308 97.8333,310 96.5,312C 99.1667,312.667 99.1667,313.333 96.5,314C 97.4462,317.809 97.4462,321.475 96.5,325C 99.1667,325.667 99.1667,326.333 96.5,327C 97.8333,329 97.8333,331 96.5,333C 98.9913,333.626 98.9913,334.459 96.5,335.5C 97.6405,336.425 97.6405,337.259 96.5,338C 97.5266,338.513 98.5266,339.013 99.5,339.5C 98.8902,340.391 98.5569,341.391 98.5,342.5C 97.2921,345.044 95.2921,346.378 92.5,346.5C 90.1667,346.5 87.8333,346.5 85.5,346.5C 86.6602,344.797 85.9935,344.131 83.5,344.5C 83.8335,305.168 84.1669,266.168 84.5,227.5 Z"/></g>
<g><path style="opacity:1" fill="#72b0f4" d="M 121.5,227.5 C 121.5,227.167 121.5,226.833 121.5,226.5C 135.167,226.5 148.833,226.5 162.5,226.5C 162.5,227.167 162.167,227.5 161.5,227.5C 156.156,227.334 150.823,227.501 145.5,228C 146.489,241.087 146.823,254.254 146.5,267.5C 144.901,267.232 143.568,267.566 142.5,268.5C 138.5,268.5 134.5,268.5 130.5,268.5C 131.263,267.732 132.263,267.232 133.5,267C 133.068,254.235 133.068,241.402 133.5,228.5C 133.121,227.276 130.454,226.943 125.5,227.5C 124.167,227.5 122.833,227.5 121.5,227.5 Z"/></g>
<g><path style="opacity:1" fill="#79aaf4" d="M 161.5,227.5 C 161.224,243.813 161.558,260.313 162.5,277C 162.15,278.257 161.483,278.591 160.5,278C 159.237,276.295 158.903,274.628 159.5,273C 158.552,272.517 157.552,272.351 156.5,272.5C 156.167,272.5 155.833,272.5 155.5,272.5C 154.662,272.158 154.328,271.492 154.5,270.5C 154.5,270.167 154.5,269.833 154.5,269.5C 150.702,268.517 146.702,268.183 142.5,268.5C 143.568,267.566 144.901,267.232 146.5,267.5C 146.823,254.254 146.489,241.087 145.5,228C 150.823,227.501 156.156,227.334 161.5,227.5 Z"/></g>
<g><path style="opacity:1" fill="#62c3f8" d="M 65.5,227.5 C 83.9925,226.503 102.659,226.17 121.5,226.5C 121.5,226.833 121.5,227.167 121.5,227.5C 117.103,227.425 112.77,227.925 108.5,229C 111.167,230.667 111.167,232.333 108.5,234C 111.167,234.667 111.167,235.333 108.5,236C 111.167,237.333 111.167,238.667 108.5,240C 111.167,240.667 111.167,241.333 108.5,242C 111.167,242.667 111.167,243.333 108.5,244C 111.167,245.333 111.167,246.667 108.5,248C 111.167,249 111.167,250 108.5,251C 111.167,252.333 111.167,253.667 108.5,255C 111.167,255.667 111.167,256.333 108.5,257C 111.167,257.667 111.167,258.333 108.5,259C 111.167,260.333 111.167,261.667 108.5,263C 111.167,263.667 111.167,264.333 108.5,265C 110.027,266.032 111.36,267.199 112.5,268.5C 108.167,268.5 103.833,268.5 99.5,268.5C 99.5,291.5 99.5,314.5 99.5,337.5C 99.5,338.167 99.5,338.833 99.5,339.5C 98.5266,339.013 97.5266,338.513 96.5,338C 97.6405,337.259 97.6405,336.425 96.5,335.5C 98.9913,334.459 98.9913,333.626 96.5,333C 97.8333,331 97.8333,329 96.5,327C 99.1667,326.333 99.1667,325.667 96.5,325C 97.4462,321.475 97.4462,317.809 96.5,314C 99.1667,313.333 99.1667,312.667 96.5,312C 97.8333,310 97.8333,308 96.5,306C 99.1667,305.333 99.1667,304.667 96.5,304C 96.5,302.333 96.5,300.667 96.5,299C 99.1667,298.333 99.1667,297.667 96.5,297C 97.8333,295 97.8333,293 96.5,291C 99.1667,290.333 99.1667,289.667 96.5,289C 96.5,287.667 96.5,286.333 96.5,285C 98.8912,283.691 98.8912,282.691 96.5,282C 97.8333,280 97.8333,278 96.5,276C 99.1667,275.333 99.1667,274.667 96.5,274C 97.8333,272 97.8333,270 96.5,268C 98.8912,267.309 98.8912,266.309 96.5,265C 96.5,263.667 96.5,262.333 96.5,261C 99.1667,260.333 99.1667,259.667 96.5,259C 97.8333,257 97.8333,255 96.5,253C 99.1667,252.333 99.1667,251.667 96.5,251C 96.8881,249.192 96.8881,247.525 96.5,246C 99.1667,245.333 99.1667,244.667 96.5,244C 97.8333,242 97.8333,240 96.5,238C 99.1667,237.333 99.1667,236.667 96.5,236C 96.8881,234.475 96.8881,232.808 96.5,231C 97.1667,230.667 97.8333,230.333 98.5,230C 95.8333,229.333 95.8333,228.667 98.5,228C 93.8452,227.501 89.1785,227.334 84.5,227.5C 81.8333,227.5 79.1667,227.5 76.5,227.5C 72.8333,227.5 69.1667,227.5 65.5,227.5 Z"/></g>
<g><path style="opacity:1" fill="#69bef9" d="M 121.5,227.5 C 122.833,227.5 124.167,227.5 125.5,227.5C 124.048,228.302 122.382,228.802 120.5,229C 121.833,241 121.833,253 120.5,265C 122.887,266.892 125.553,268.058 128.5,268.5C 123.167,268.5 117.833,268.5 112.5,268.5C 111.36,267.199 110.027,266.032 108.5,265C 111.167,264.333 111.167,263.667 108.5,263C 111.167,261.667 111.167,260.333 108.5,259C 111.167,258.333 111.167,257.667 108.5,257C 111.167,256.333 111.167,255.667 108.5,255C 111.167,253.667 111.167,252.333 108.5,251C 111.167,250 111.167,249 108.5,248C 111.167,246.667 111.167,245.333 108.5,244C 111.167,243.333 111.167,242.667 108.5,242C 111.167,241.333 111.167,240.667 108.5,240C 111.167,238.667 111.167,237.333 108.5,236C 111.167,235.333 111.167,234.667 108.5,234C 111.167,232.333 111.167,230.667 108.5,229C 112.77,227.925 117.103,227.425 121.5,227.5 Z"/></g>
<g><path style="opacity:1" fill="#6eb8f8" d="M 125.5,227.5 C 130.454,226.943 133.121,227.276 133.5,228.5C 133.068,241.402 133.068,254.235 133.5,267C 132.263,267.232 131.263,267.732 130.5,268.5C 129.833,268.5 129.167,268.5 128.5,268.5C 125.553,268.058 122.887,266.892 120.5,265C 121.833,253 121.833,241 120.5,229C 122.382,228.802 124.048,228.302 125.5,227.5 Z"/></g>
<g><path style="opacity:0.29" fill="#4e4765" d="M 236.5,228.5 C 235.921,231.331 234.588,233.664 232.5,235.5C 233.079,232.669 234.412,230.336 236.5,228.5 Z"/></g>
<g><path style="opacity:0.004" fill="#3c3a4a" d="M 216.5,252.5 C 216.027,253.906 215.027,254.573 213.5,254.5C 213.973,253.094 214.973,252.427 216.5,252.5 Z"/></g>
<g><path style="opacity:0.4" fill="#4f5072" d="M 202.5,265.5 C 203.906,265.973 204.573,266.973 204.5,268.5C 203.094,268.027 202.427,267.027 202.5,265.5 Z"/></g>
<g><path style="opacity:0.42" fill="#4e4e6f" d="M 204.5,268.5 C 205.906,268.973 206.573,269.973 206.5,271.5C 205.094,271.027 204.427,270.027 204.5,268.5 Z"/></g>
<g><path style="opacity:0.092" fill="#2b3338" d="M 154.5,269.5 C 154.5,269.833 154.5,270.167 154.5,270.5C 136.833,270.5 119.167,270.5 101.5,270.5C 101.667,293.169 101.5,315.836 101,338.5C 100.8,340.32 99.9663,341.653 98.5,342.5C 98.5569,341.391 98.8902,340.391 99.5,339.5C 99.5,338.833 99.5,338.167 99.5,337.5C 100.497,315.006 100.831,292.339 100.5,269.5C 118.5,269.5 136.5,269.5 154.5,269.5 Z"/></g>
<g><path style="opacity:0.094" fill="#363d49" d="M 155.5,272.5 C 155.833,272.5 156.167,272.5 156.5,272.5C 157.11,273.391 157.443,274.391 157.5,275.5C 156.094,275.027 155.427,274.027 155.5,272.5 Z"/></g>
<g><path style="opacity:0.424" fill="#4e4c6c" d="M 208.5,274.5 C 209.906,274.973 210.573,275.973 210.5,277.5C 209.833,277.167 209.167,276.833 208.5,276.5C 208.5,275.833 208.5,275.167 208.5,274.5 Z"/></g>
<g><path style="opacity:1" fill="#908bec" d="M 208.5,276.5 C 209.167,276.833 209.833,277.167 210.5,277.5C 210.427,279.027 211.094,280.027 212.5,280.5C 212.427,282.027 213.094,283.027 214.5,283.5C 217.579,286.65 219.913,290.317 221.5,294.5C 220.211,293.499 218.878,293.666 217.5,295C 218.167,295.333 218.833,295.667 219.5,296C 218.167,296.667 218.167,297.333 219.5,298C 216.833,298.667 216.833,299.333 219.5,300C 217.109,301.309 217.109,302.309 219.5,303C 218.167,303.667 218.167,304.333 219.5,305C 216.833,305.667 216.833,306.333 219.5,307C 218.167,307.667 218.167,308.333 219.5,309C 216.833,309.667 216.833,310.333 219.5,311C 218.167,311.667 218.167,312.333 219.5,313C 216.833,313.667 216.833,314.333 219.5,315C 218.167,315.667 218.167,316.333 219.5,317C 217.109,317.691 217.109,318.691 219.5,320C 218.167,320.667 218.167,321.333 219.5,322C 216.833,322.667 216.833,323.333 219.5,324C 218.167,324.667 218.167,325.333 219.5,326C 216.833,326.667 216.833,327.333 219.5,328C 218.167,328.667 218.167,329.333 219.5,330C 216.833,330.667 216.833,331.333 219.5,332C 218.167,332.667 218.167,333.333 219.5,334C 217.109,334.691 217.109,335.691 219.5,337C 216.833,337.667 216.833,338.333 219.5,339C 218.167,339.667 218.167,340.333 219.5,341C 216.833,341.667 216.833,342.333 219.5,343C 218.167,343.667 218.167,344.333 219.5,345C 217.618,345.198 215.952,345.698 214.5,346.5C 211.5,346.5 208.5,346.5 205.5,346.5C 204.508,346.672 203.842,346.338 203.5,345.5C 208.145,346.331 209.145,345.164 206.5,342C 206.887,334.86 206.887,327.86 206.5,321C 208.991,320.374 208.991,319.541 206.5,318.5C 206.623,307.289 206.623,296.123 206.5,285C 209.167,284 209.167,283 206.5,282C 206.5,280.667 206.5,279.333 206.5,278C 207.044,277.283 207.711,276.783 208.5,276.5 Z"/></g>
<g><path style="opacity:0.408" fill="#4d4b6b" d="M 210.5,277.5 C 211.906,277.973 212.573,278.973 212.5,280.5C 211.094,280.027 210.427,279.027 210.5,277.5 Z"/></g>
<g><path style="opacity:0.4" fill="#4c4968" d="M 212.5,280.5 C 213.906,280.973 214.573,281.973 214.5,283.5C 213.094,283.027 212.427,282.027 212.5,280.5 Z"/></g>
<g><path style="opacity:0.292" fill="#2e525b" d="M 59.5,229.5 C 58.7717,231.512 57.9383,233.512 57,235.5C 56.5,270.498 56.3333,305.498 56.5,340.5C 55.3357,305.002 55.169,269.336 56,233.5C 56.4983,231.456 57.665,230.122 59.5,229.5 Z"/></g>
<g><path style="opacity:0.471" fill="#554f78" d="M 221.5,294.5 C 222.906,294.973 223.573,295.973 223.5,297.5C 222.094,297.027 221.427,296.027 221.5,294.5 Z"/></g>
<g><path style="opacity:1" fill="#9686ed" d="M 221.5,294.5 C 221.427,296.027 222.094,297.027 223.5,297.5C 223.427,299.027 224.094,300.027 225.5,300.5C 225.427,302.027 226.094,303.027 227.5,303.5C 227.427,305.027 228.094,306.027 229.5,306.5C 229.427,308.027 230.094,309.027 231.5,309.5C 231.557,310.609 231.89,311.609 232.5,312.5C 231.711,312.783 231.044,313.283 230.5,314C 231.436,323.403 231.436,332.737 230.5,342C 231.267,343.47 231.933,344.97 232.5,346.5C 226.5,346.5 220.5,346.5 214.5,346.5C 215.952,345.698 217.618,345.198 219.5,345C 218.167,344.333 218.167,343.667 219.5,343C 216.833,342.333 216.833,341.667 219.5,341C 218.167,340.333 218.167,339.667 219.5,339C 216.833,338.333 216.833,337.667 219.5,337C 217.109,335.691 217.109,334.691 219.5,334C 218.167,333.333 218.167,332.667 219.5,332C 216.833,331.333 216.833,330.667 219.5,330C 218.167,329.333 218.167,328.667 219.5,328C 216.833,327.333 216.833,326.667 219.5,326C 218.167,325.333 218.167,324.667 219.5,324C 216.833,323.333 216.833,322.667 219.5,322C 218.167,321.333 218.167,320.667 219.5,320C 217.109,318.691 217.109,317.691 219.5,317C 218.167,316.333 218.167,315.667 219.5,315C 216.833,314.333 216.833,313.667 219.5,313C 218.167,312.333 218.167,311.667 219.5,311C 216.833,310.333 216.833,309.667 219.5,309C 218.167,308.333 218.167,307.667 219.5,307C 216.833,306.333 216.833,305.667 219.5,305C 218.167,304.333 218.167,303.667 219.5,303C 217.109,302.309 217.109,301.309 219.5,300C 216.833,299.333 216.833,298.667 219.5,298C 218.167,297.333 218.167,296.667 219.5,296C 218.833,295.667 218.167,295.333 217.5,295C 218.878,293.666 220.211,293.499 221.5,294.5 Z"/></g>
<g><path style="opacity:0.482" fill="#554e77" d="M 223.5,297.5 C 224.906,297.973 225.573,298.973 225.5,300.5C 224.094,300.027 223.427,299.027 223.5,297.5 Z"/></g>
<g><path style="opacity:0.467" fill="#554f76" d="M 225.5,300.5 C 226.906,300.973 227.573,301.973 227.5,303.5C 226.094,303.027 225.427,302.027 225.5,300.5 Z"/></g>
<g><path style="opacity:0.455" fill="#554c74" d="M 227.5,303.5 C 228.906,303.973 229.573,304.973 229.5,306.5C 228.094,306.027 227.427,305.027 227.5,303.5 Z"/></g>
<g><path style="opacity:0.412" fill="#524b70" d="M 229.5,306.5 C 230.906,306.973 231.573,307.973 231.5,309.5C 230.094,309.027 229.427,308.027 229.5,306.5 Z"/></g>
<g><path style="opacity:0.365" fill="#4f4769" d="M 231.5,309.5 C 232.906,309.973 233.573,310.973 233.5,312.5C 233.167,312.5 232.833,312.5 232.5,312.5C 231.89,311.609 231.557,310.609 231.5,309.5 Z"/></g>
<g><path style="opacity:1" fill="#967ce3" d="M 232.5,312.5 C 232.833,312.5 233.167,312.5 233.5,312.5C 233.427,314.027 234.094,315.027 235.5,315.5C 235.427,317.027 236.094,318.027 237.5,318.5C 242.06,323.75 245.393,329.75 247.5,336.5C 246.668,341.329 244.001,344.662 239.5,346.5C 237.167,346.5 234.833,346.5 232.5,346.5C 231.933,344.97 231.267,343.47 230.5,342C 231.436,332.737 231.436,323.403 230.5,314C 231.044,313.283 231.711,312.783 232.5,312.5 Z"/></g>
<g><path style="opacity:0.833" fill="#58a0cc" d="M 112.5,268.5 C 117.833,268.5 123.167,268.5 128.5,268.5C 129.167,268.5 129.833,268.5 130.5,268.5C 134.5,268.5 138.5,268.5 142.5,268.5C 146.702,268.183 150.702,268.517 154.5,269.5C 136.5,269.5 118.5,269.5 100.5,269.5C 100.831,292.339 100.497,315.006 99.5,337.5C 99.5,314.5 99.5,291.5 99.5,268.5C 103.833,268.5 108.167,268.5 112.5,268.5 Z"/></g>
<g><path style="opacity:0.325" fill="#4c4564" d="M 233.5,312.5 C 234.906,312.973 235.573,313.973 235.5,315.5C 234.094,315.027 233.427,314.027 233.5,312.5 Z"/></g>
<g><path style="opacity:0.898" fill="#58638f" d="M 177.5,307.5 C 179.379,308.897 181.046,310.563 182.5,312.5C 183.736,314.649 184.736,316.982 185.5,319.5C 182.35,315.881 179.684,311.881 177.5,307.5 Z"/></g>
<g><path style="opacity:0.322" fill="#4a425f" d="M 235.5,315.5 C 236.906,315.973 237.573,316.973 237.5,318.5C 236.094,318.027 235.427,317.027 235.5,315.5 Z"/></g>
<g><path style="opacity:0.18" fill="#3f4156" d="M 196.5,337.5 C 197.906,337.973 198.573,338.973 198.5,340.5C 197.094,340.027 196.427,339.027 196.5,337.5 Z"/></g>
<g><path style="opacity:0.769" fill="#7c408a" d="M 333.5,343.5 C 335.264,344.326 336.598,345.659 337.5,347.5C 335.29,347.106 333.957,345.773 333.5,343.5 Z"/></g>
<g><path style="opacity:0.445" fill="#365d6c" d="M 64.5,346.5 C 71.5,346.5 78.5,346.5 85.5,346.5C 87.8333,346.5 90.1667,346.5 92.5,346.5C 91.3588,347.339 90.0255,348.006 88.5,348.5C 81.3032,347.18 74.1366,347.18 67,348.5C 66.0053,347.934 65.172,347.267 64.5,346.5 Z"/></g>
<g><path style="opacity:0.462" fill="#534d75" d="M 205.5,346.5 C 208.5,346.5 211.5,346.5 214.5,346.5C 220.5,346.5 226.5,346.5 232.5,346.5C 234.833,346.5 237.167,346.5 239.5,346.5C 236.772,347.205 233.939,347.872 231,348.5C 222.402,347.846 213.902,347.18 205.5,346.5 Z"/></g>
<g><path style="opacity:0.952" fill="#863e91" d="M 337.5,347.5 C 339.764,348.219 342.097,348.552 344.5,348.5C 346.167,348.5 347.833,348.5 349.5,348.5C 355.5,348.5 361.5,348.5 367.5,348.5C 368.833,348.5 370.167,348.5 371.5,348.5C 370.391,349.29 369.058,349.79 367.5,350C 359.167,350.667 350.833,350.667 342.5,350C 340.347,349.901 338.681,349.067 337.5,347.5 Z"/></g>
</svg>
